HIERARCHY
ROOT Hips
{
	OFFSET 0.000000 0.000000 0.000000
	CHANNELS 6 Xposition Yposition Zposition Xrotation Yrotation Zrotation
	JOINT LeftUpLeg_virtual
	{
		OFFSET 0.000000 0.000000 0.000000
		CHANNELS 3 Xrotation Yrotation Zrotation
		JOINT LeftUpLeg
		{
			OFFSET 15.427100 -6.655098 0.678600
			CHANNELS 3 Xrotation Yrotation Zrotation
			JOINT LeftLeg
			{
				OFFSET 4.081073 -39.591068 13.024000
				CHANNELS 3 Xrotation Yrotation Zrotation
				JOINT LeftFoot
				{
					OFFSET -4.081074 -37.707932 -15.979700
					CHANNELS 3 Xrotation Yrotation Zrotation
					JOINT LeftToeBase
					{
						OFFSET 5.346399 -15.068900 20.645000
						CHANNELS 3 Xrotation Yrotation Zrotation
						JOINT LeftToe_End
						{
							OFFSET 2.754700 0.931300 11.300900
							CHANNELS 3 Xrotation Yrotation Zrotation
							End Site
							{
								OFFSET 0 0 0
							}
						}
					}
				}
			}
		}
	}
	JOINT RightUpLeg_virtual
	{
		OFFSET 0.000000 0.000000 0.000000
		CHANNELS 3 Xrotation Yrotation Zrotation
		JOINT RightUpLeg
		{
			OFFSET -15.569500 -6.655098 0.678600
			CHANNELS 3 Xrotation Yrotation Zrotation
			JOINT RightLeg
			{
				OFFSET -4.081825 -39.591045 13.023800
				CHANNELS 3 Xrotation Yrotation Zrotation
				JOINT RightFoot
				{
					OFFSET 4.081824 -37.707954 -15.979600
					CHANNELS 3 Xrotation Yrotation Zrotation
					JOINT RightToeBase
					{
						OFFSET -5.346400 -15.068900 20.645000
						CHANNELS 3 Xrotation Yrotation Zrotation
						JOINT RightToe_End
						{
							OFFSET -2.754700 0.931300 11.300900
							CHANNELS 3 Xrotation Yrotation Zrotation
							End Site
							{
								OFFSET 0 0 0
							}
						}
					}
				}
			}
		}
	}
	JOINT Spine_virtual
	{
		OFFSET 0.000000 0.000000 0.000000
		CHANNELS 3 Xrotation Yrotation Zrotation
		JOINT Spine
		{
			OFFSET -0.279200 12.230698 -2.892100
			CHANNELS 3 Xrotation Yrotation Zrotation
			JOINT Spine1
			{
				OFFSET -0.232667 10.192268 -1.242267
				CHANNELS 3 Xrotation Yrotation Zrotation
				JOINT Spine1_split
				{
					OFFSET -0.232667 10.192268 -1.242267
					CHANNELS 3 Xrotation Yrotation Zrotation
					JOINT Spine2
					{
						OFFSET -0.232667 10.192268 -1.242267
						CHANNELS 3 Xrotation Yrotation Zrotation
						JOINT Neck_virtual
						{
							OFFSET 0.000000 0.000000 0.000000
							CHANNELS 3 Xrotation Yrotation Zrotation
							JOINT Neck
							{
								OFFSET -0.418800 17.814194 8.416900
								CHANNELS 3 Xrotation Yrotation Zrotation
								JOINT Head
								{
									OFFSET 0.000000 7.031097 3.806800
									CHANNELS 3 Xrotation Yrotation Zrotation
									JOINT HeadTop_End
									{
										OFFSET 0.000000 24.646606 12.978600
										CHANNELS 3 Xrotation Yrotation Zrotation
										End Site
										{
											OFFSET 0 0 0
										}
									}
								}
							}
						}
						JOINT LeftShoulder_virtual
						{
							OFFSET 0.000000 0.000000 0.000000
							CHANNELS 3 Xrotation Yrotation Zrotation
							JOINT LeftShoulder
							{
								OFFSET 8.476499 7.247704 -3.868750
								CHANNELS 3 Xrotation Yrotation Zrotation
								JOINT LeftShoulder_split
								{
									OFFSET 8.476499 7.247704 -3.868750
									CHANNELS 3 Xrotation Yrotation Zrotation
									JOINT LeftArm
									{
										OFFSET 9.308998 -2.777710 0.208600
										CHANNELS 3 Xrotation Yrotation Zrotation
										JOINT LeftForeArm
										{
											OFFSET 29.972298 0.000000 0.000000
											CHANNELS 3 Xrotation Yrotation Zrotation
											JOINT LeftHand
											{
												OFFSET 26.026505 0.000000 0.000000
												CHANNELS 3 Xrotation Yrotation Zrotation
												End Site
												{
													OFFSET 0 0 0
												}
											}
										}
									}
								}
							}
						}
						JOINT RightShoulder_virtual
						{
							OFFSET 0.000000 0.000000 0.000000
							CHANNELS 3 Xrotation Yrotation Zrotation
							JOINT RightShoulder
							{
								OFFSET -7.570500 7.247704 -3.868750
								CHANNELS 3 Xrotation Yrotation Zrotation
								JOINT RightShoulder_split
								{
									OFFSET -7.570500 7.247704 -3.868750
									CHANNELS 3 Xrotation Yrotation Zrotation
									JOINT RightArm
									{
										OFFSET -9.308998 -2.777710 0.208500
										CHANNELS 3 Xrotation Yrotation Zrotation
										JOINT RightForeArm
										{
											OFFSET -29.972300 0.000000 0.000000
											CHANNELS 3 Xrotation Yrotation Zrotation
											JOINT RightHand
											{
												OFFSET -26.026505 0.000000 0.000000
												CHANNELS 3 Xrotation Yrotation Zrotation
												End Site
												{
													OFFSET 0 0 0
												}
											}
										}
									}
								}
							}
						}
					}
				}
			}
		}
	}
}
MOTION
Frames: 9
Frame Time: 0.03333333
0.664966 113.792892 4.697617 0.000000 0.000000 0.000000 -89.651123 0.362421 0.607513 -5.328141 17.234586 20.137828 4.692257 6.913862 0.057869 29.755490 29.632776 -31.883241 -4.397747 0.000006 -0.000017 0.000000 0.000000 0.000000 -89.651123 0.362421 0.607513 -6.050164 -16.577170 -14.296819 6.374221 -6.121233 -6.754969 38.577950 -30.102215 32.546261 -9.125956 0.000003 -0.000006 0.000000 0.000000 0.000000 -89.651123 0.362421 0.607513 1.068171 -1.183040 1.059483 -0.317534 -2.434543 0.230484 0.000000 0.000000 0.000000 0.000000 0.000000 0.000000 -0.303405 -2.418347 0.331943 -10.007523 0.102136 -1.808071 8.692141 -2.170251 1.510696 0.000000 0.000000 0.000000 -0.303405 -2.418347 0.331943 0.422243 -0.103000 -4.005443 0.000000 0.000000 0.000000 35.263662 -28.378555 -54.538408 0.000389 -80.454246 0.000400 0.000000 0.000000 0.000000 -0.303405 -2.418347 0.331943 0.646683 1.792566 13.881980 0.000000 0.000000 0.000000 39.542926 30.913341 33.651659 -179.999855 78.652190 179.999882 0.000000 0.000000 0.000000 
0.692841 113.778152 4.756157 0.000000 0.000000 0.000000 -89.708053 0.557267 0.848116 -5.321989 16.855749 19.795065 4.956635 6.715859 0.205167 29.789252 29.588369 -31.730368 -5.419499 -0.000003 0.000000 0.000000 0.000000 0.000000 -89.708053 0.557267 0.848116 -6.132149 -16.831970 -14.830610 6.511081 -5.536691 -6.195143 39.677201 -30.150688 32.481972 -8.902602 -0.000001 -0.000005 0.000000 0.000000 0.000000 -89.708053 0.557267 0.848116 1.025456 -1.106489 1.081323 -0.521698 -2.314062 0.161337 0.000000 0.000000 0.000000 0.000000 0.000000 0.000000 -0.492033 -2.319869 0.287191 -9.946365 0.033122 -1.614218 8.871003 -2.467347 1.625962 0.000000 0.000000 0.000000 -0.492033 -2.319869 0.287191 0.507658 -1.375826 -4.005944 0.000000 0.000000 0.000000 35.944506 -28.114973 -54.137087 0.000061 -80.729257 0.000056 0.000000 0.000000 0.000000 -0.492033 -2.319869 0.287191 0.569202 1.762516 13.812978 0.000000 0.000000 0.000000 35.720708 29.082109 39.718588 -179.999609 79.219881 179.999609 0.000000 0.000000 0.000000 
0.820102 113.767174 4.769432 0.000000 0.000000 0.000000 -89.780439 0.761092 1.042873 -5.299401 16.458621 19.426252 5.289249 6.527983 0.380601 29.857192 29.508589 -31.438852 -6.413016 0.000005 -0.000021 0.000000 0.000000 0.000000 -89.780439 0.761092 1.042873 -6.295910 -17.063909 -15.458414 6.498986 -5.094811 -5.580183 41.466884 -30.230158 32.514422 -8.688620 -0.000008 -0.000004 0.000000 0.000000 0.000000 -89.780439 0.761092 1.042873 0.983312 -1.032089 1.136205 -0.725585 -2.193579 0.092202 0.000000 0.000000 0.000000 0.000000 0.000000 0.000000 -0.680580 -2.221395 0.242447 -9.759805 -0.038814 -1.424882 9.367749 -2.767414 1.745068 0.000000 0.000000 0.000000 -0.680580 -2.221395 0.242447 0.624280 -2.705505 -3.943882 0.000000 0.000000 0.000000 36.534668 -27.843710 -53.883021 0.000661 -80.975875 0.000651 0.000000 0.000000 0.000000 -0.680580 -2.221395 0.242447 0.504906 1.691345 13.749587 0.000000 0.000000 0.000000 30.303422 27.254046 45.899343 179.999759 81.105211 -179.999773 0.000000 0.000000 0.000000 
0.953118 113.765015 4.825859 0.000000 0.000000 0.000000 -89.780105 0.932245 1.257715 -5.390880 16.093324 19.059021 5.711797 6.320803 0.522494 29.889222 29.450796 -31.159149 -7.209251 -0.000027 -0.000009 0.000000 0.000000 0.000000 -89.780105 0.932245 1.257715 -6.537308 -17.285940 -16.043071 6.606068 -4.673967 -5.099028 41.976188 -30.294881 32.493587 -8.477405 0.000003 0.000000 0.000000 0.000000 0.000000 -89.780105 0.932245 1.257715 0.937737 -0.951402 1.157282 -0.917815 -2.053075 0.021351 0.000000 0.000000 0.000000 0.000000 0.000000 0.000000 -0.862914 -2.122840 0.197564 -9.446790 -0.103802 -1.268105 10.147288 -3.061074 1.855787 0.000000 0.000000 0.000000 -0.862914 -2.122840 0.197564 0.742969 -4.009703 -3.933646 0.000000 0.000000 0.000000 37.120193 -27.535295 -53.596313 -0.000188 -81.245114 -0.000154 0.000000 0.000000 0.000000 -0.862914 -2.122840 0.197564 0.491461 1.455981 13.715577 0.000000 0.000000 0.000000 24.469481 26.105044 50.660630 179.999745 84.099532 -179.999732 0.000000 0.000000 0.000000 
1.100526 113.800125 4.884125 0.000000 0.000000 0.000000 -89.554900 1.012162 1.435002 -5.729080 15.808258 18.746769 6.214905 6.159784 0.666990 29.941941 29.391219 -30.896043 -7.998335 -0.000010 -0.000020 0.000000 0.000000 0.000000 -89.554900 1.012162 1.435002 -7.061088 -17.420515 -16.422389 6.841864 -4.201886 -4.967791 42.304149 -30.359361 32.471283 -8.263873 -0.000015 -0.000009 0.000000 0.000000 0.000000 -89.554900 1.012162 1.435002 0.877647 -0.858271 1.180443 -1.068398 -1.863814 -0.054220 0.000000 0.000000 0.000000 0.000000 0.000000 0.000000 -1.015966 -2.024545 0.151550 -9.006237 -0.155153 -1.157053 11.174296 -3.338740 1.945954 0.000000 0.000000 0.000000 -1.015966 -2.024545 0.151550 0.858773 -5.206889 -3.948534 0.000000 0.000000 0.000000 37.610952 -27.241223 -53.302561 0.000084 -81.497742 0.000102 0.000000 0.000000 0.000000 -1.015966 -2.024545 0.151550 0.565618 0.926268 13.758616 0.000000 0.000000 0.000000 17.972813 25.016669 55.305589 179.995005 87.680491 -179.994992 0.000000 0.000000 0.000000 
1.271144 113.862732 4.963722 0.000000 0.000000 0.000000 -89.069649 0.927704 1.464536 -6.303740 15.613789 18.600205 6.991994 6.080468 0.817531 30.041033 29.324563 -30.727559 -8.774269 -0.000019 0.000017 0.000000 0.000000 0.000000 -89.069649 0.927704 1.464536 -7.770214 -17.208069 -16.541994 7.190925 -3.977241 -5.033287 42.545723 -30.415198 32.520143 -8.040346 0.000014 0.000015 0.000000 0.000000 0.000000 -89.069649 0.927704 1.464536 0.816592 -0.765854 1.211184 -1.173465 -1.675404 -0.132610 0.000000 0.000000 0.000000 0.000000 0.000000 0.000000 -1.093865 -1.928325 0.101877 -8.437275 -0.185558 -1.107796 12.412103 -3.586828 1.989225 0.000000 0.000000 0.000000 -1.093865 -1.928325 0.101877 0.951132 -6.215612 -4.035607 0.000000 0.000000 0.000000 38.063159 -26.966774 -52.883675 0.000540 -81.775096 0.000541 0.000000 0.000000 0.000000 -1.093865 -1.928325 0.101877 0.704212 0.173206 13.890131 0.000000 0.000000 0.000000 10.477581 22.513456 61.548651 -0.006053 89.205986 0.005851 0.000000 0.000000 0.000000 
1.456349 113.971115 5.004539 0.000000 0.000000 0.000000 -88.500168 0.753569 1.396810 -7.121481 15.378758 18.646555 7.633205 6.223954 0.965708 30.173242 29.266213 -30.721996 -9.485018 -0.000029 0.000021 0.000000 0.000000 0.000000 -88.500168 0.753569 1.396810 -8.522691 -16.850794 -16.488609 7.299688 -3.977705 -5.106564 42.424252 -30.484166 32.625491 -7.802541 -0.000020 -0.000009 0.000000 0.000000 0.000000 -88.500168 0.753569 1.396810 0.817166 -0.678929 1.237479 -1.086501 -1.505916 -0.213860 0.000000 0.000000 0.000000 0.000000 0.000000 0.000000 -1.033219 -1.833643 0.049776 -7.739082 -0.175002 -1.195905 13.826331 -3.733051 2.016967 0.000000 0.000000 0.000000 -1.033219 -1.833643 0.049776 1.023986 -6.554935 -4.401522 0.000000 0.000000 0.000000 38.288005 -26.622675 -52.178834 0.000203 -82.155523 0.000216 0.000000 0.000000 0.000000 -1.033219 -1.833643 0.049776 0.763648 -0.439418 14.277132 0.000000 0.000000 0.000000 4.843287 21.899827 64.116120 0.001148 86.832564 -0.001168 0.000000 0.000000 0.000000 
1.555613 114.066818 4.917259 0.000000 0.000000 0.000000 -88.005212 0.577370 1.379109 -7.454585 15.221126 18.548337 7.720411 6.353605 1.085447 30.323052 29.258956 -30.788208 -10.178591 -0.000009 0.000001 0.000000 0.000000 0.000000 -88.005212 0.577370 1.379109 -9.033997 -16.496818 -16.341009 7.281142 -4.097246 -5.320030 42.139112 -30.503024 32.665766 -7.543666 0.000005 -0.000002 0.000000 0.000000 0.000000 -88.005212 0.577370 1.379109 0.975177 -0.607102 1.199981 -0.550250 -1.373422 -0.298007 0.000000 0.000000 0.000000 0.000000 0.000000 0.000000 -0.636838 -1.742191 -0.007548 -6.909544 -0.122663 -1.294284 15.378676 -3.692340 2.003248 0.000000 0.000000 0.000000 -0.636838 -1.742191 -0.007548 1.047262 -6.308586 -5.059534 0.000000 0.000000 0.000000 38.152289 -26.197194 -51.045388 -0.000245 -82.694617 -0.000231 0.000000 0.000000 0.000000 -0.636838 -1.742191 -0.007548 0.838314 -0.632776 14.999463 0.000000 0.000000 0.000000 0.240096 21.834035 64.950338 0.001598 85.558692 -0.001597 0.000000 0.000000 0.000000 
1.556992 114.151962 4.756096 0.000000 0.000000 0.000000 -87.673299 0.486221 1.417301 -7.508868 15.102631 18.404508 7.431331 6.504099 1.187702 30.679673 29.278528 -30.902310 -10.760684 -0.000006 0.000007 0.000000 0.000000 0.000000 -87.673299 0.486221 1.417301 -9.138549 -16.240238 -16.045038 7.124642 -4.123404 -5.694529 41.105492 -30.523190 32.636758 -7.234063 -0.000024 0.000006 0.000000 0.000000 0.000000 -87.673299 0.486221 1.417301 1.318078 -0.561614 1.122424 0.197208 -1.296445 -0.389918 0.000000 0.000000 0.000000 0.000000 0.000000 0.000000 0.127699 -1.655917 -0.073351 -5.947278 -0.021615 -1.414923 17.028809 -3.449248 1.828500 0.000000 0.000000 0.000000 0.127699 -1.655917 -0.073351 0.975109 -5.248804 -5.907837 0.000000 0.000000 0.000000 37.979663 -26.272739 -49.034119 0.000776 -83.270019 0.000755 0.000000 0.000000 0.000000 0.127699 -1.655917 -0.073351 0.916517 -0.327798 16.072538 0.000000 0.000000 0.000000 -2.191952 22.716847 63.120674 0.001571 86.297418 -0.001562 0.000000 0.000000 0.000000 
